<?xml version="1.0" encoding="utf-8"?>
<!-- Generator: Adobe Illustrator 21.1.0, SVG Export Plug-In . SVG Version: 6.00 Build 0)  -->
<svg version="1.1" id="Слой_1" xmlns="http://www.w3.org/2000/svg" xmlns:xlink="http://www.w3.org/1999/xlink" x="0px" y="0px"
	 viewBox="0 0 45.5 35.667" style="enable-background:new 0 0 45.5 35.667;" xml:space="preserve">
<style type="text/css">
	.st0{fill:none;stroke:#D51900;stroke-width:2;stroke-linecap:round;stroke-linejoin:round;stroke-miterlimit:10;}
	.st1{fill:none;stroke:#D51900;stroke-linecap:round;stroke-linejoin:round;stroke-miterlimit:10;}
	.st2{fill:#D51900;}
</style>
<g>
	<polyline class="st0" points="1.198,1.326 22.333,15.288 22.333,34.333 14.242,34.333 30.715,34.333 22.333,34.333 22.333,15.288
		43.323,1.326 	"/>
	<line class="st1" x1="44.333" y1="0.833" x2="1.333" y2="0.833"/>
	<path class="st2" d="M7.905,5.333l15.143,9.206L37.51,5.333H7.905z M18.766,8.892c-0.596,0-1.079-0.484-1.079-1.079
		s0.483-1.079,1.079-1.079c0.597,0,1.08,0.484,1.08,1.079S19.363,8.892,18.766,8.892z M22.75,11.793
		c-0.82,0-1.485-0.665-1.485-1.486c0-0.818,0.665-1.484,1.485-1.484c0.821,0,1.484,0.666,1.484,1.484
		C24.234,11.128,23.571,11.793,22.75,11.793z M26.881,9.617c-0.733,0-1.326-0.594-1.326-1.326c0-0.731,0.594-1.326,1.326-1.326
		c0.732,0,1.325,0.595,1.325,1.326C28.206,9.023,27.614,9.617,26.881,9.617z"/>
</g>
</svg>
