<?xml version="1.0" encoding="utf-8"?>
<!-- Generator: Adobe Illustrator 21.1.0, SVG Export Plug-In . SVG Version: 6.00 Build 0)  -->
<svg version="1.1" id="Слой_1" xmlns="http://www.w3.org/2000/svg" xmlns:xlink="http://www.w3.org/1999/xlink" x="0px" y="0px"
	 viewBox="0 0 50 51.25" style="enable-background:new 0 0 50 51.25;" xml:space="preserve">
<style type="text/css">
	.st0{fill:none;stroke:#D51900;stroke-width:2;stroke-linecap:round;stroke-linejoin:round;stroke-miterlimit:10;}
	.st1{fill:none;stroke:#D51900;stroke-linecap:round;stroke-linejoin:round;stroke-miterlimit:10;}
</style>
<g>
	<path class="st0" d="M28.116,3.373c-0.011-0.024,2.492,5.587,2.864,7.39c0.354,1.738-2.268,9.005-4.711,12.749
		c-2.912,4.456-12.086,10.784-12.749,10.808c-0.632,0.021-5.695-2.986-9.237,0c-3.351,2.824-2.958,6.679-2.957,10.07
		c0,0.476,5.897,0.553,5.912,0c0.017-0.615,0.261-2.496,0.44-3.621c0.212-1.316,2.49-2.101,3.164,0.663
		c0.884,3.632,3.691,6.638,7.85,7.206c6.099,0.831,13.999-0.107,19.123-4.712c8.01-7.196,10.097-12.945,9.607-19.307
		c-0.485-6.299-2.748-11.128-5.542-13.486c-3.332-2.813-5.749-2.699-6.282-3.537c-0.315-0.492-2.219-4.987-2.401-5.608
		C33.071,1.554,27.985,2.994,28.116,3.373z"/>
	<path class="st1" d="M4.338,45.376c0,0,0.17-4.483,0.317-5.307c0.445-2.478,1.796-3.768,3.935-3.806
		c2.868-0.051,4.423,1.706,5.124,4.382c0.933,3.573,3.749,4.994,7.353,5.302c6.175,0.528,9.445,0.108,14.759-4.249
		C42.405,36.306,44.185,30,44.185,30H24.653c-3.153,3-10.973,8.296-11.301,8.052c-0.721-0.542-2.484-1.658-4.35-1.73"/>
</g>
</svg>
