<?xml version="1.0" encoding="utf-8"?>
<!-- Generator: Adobe Illustrator 21.1.0, SVG Export Plug-In . SVG Version: 6.00 Build 0)  -->
<svg version="1.1" id="Слой_1" xmlns="http://www.w3.org/2000/svg" xmlns:xlink="http://www.w3.org/1999/xlink" x="0px" y="0px"
	 viewBox="0 0 49.25 53.5" style="enable-background:new 0 0 49.25 53.5;" xml:space="preserve">
<style type="text/css">
	.st0{fill:none;stroke:#D51900;stroke-linecap:round;stroke-linejoin:round;stroke-miterlimit:10;}
	.st1{fill:none;stroke:#D51900;stroke-width:2;stroke-linecap:round;stroke-linejoin:round;stroke-miterlimit:10;}
	.st2{fill:none;stroke:#D51900;stroke-width:0.5;stroke-linecap:round;stroke-linejoin:round;stroke-miterlimit:10;}
</style>
<g>
	<g>
		<path class="st0" d="M38.606,38.937c0.812,0.769-0.631,3.069-3.219,5.142c-0.967,0.774-1.956,1.407-2.858,1.857
			c-1.518,0.754-2.791,0.991-3.3,0.51"/>
		<path class="st1" d="M38.754,36.417c-1.648-0.332-5.352,0.515-8.468,3.009c-3.106,2.486-4.486,5.707-4.263,7.165
			c0.126,0.821,0.307,2.12,1.25,3.012l0.764,0.722c0.589,0.556,2.536,1.212,3.489,1.274c1.681,0.108,5.296-0.813,8.231-3.163
			c2.943-2.356,4.247-5.374,4.243-6.841c-0.002-0.826-0.287-2.08-1.286-3.024l-0.764-0.721
			C41.018,36.968,39.679,36.603,38.754,36.417z"/>
	</g>
	<g>
		<path class="st0" d="M39.316,16.105c0.938-0.103,2.039,2.172,2.457,5.08c0.16,1.085,0.197,2.106,0.139,2.963
			c-0.1,1.441-0.486,2.426-1.072,2.489"/>
		<path class="st1" d="M37.493,14.656c-0.979,0.91-1.983,3.813-1.478,7.314c0.504,3.489,2.324,6.224,3.519,6.907
			c0.677,0.384,1.737,0.983,2.824,0.864l0.882-0.097c0.679-0.073,2.038-0.995,2.503-1.595c0.824-1.057,1.726-3.992,1.249-7.287
			c-0.477-3.307-2.165-5.807-3.275-6.644c-0.625-0.469-1.685-0.905-2.837-0.778L40,13.438
			C38.921,13.556,38.043,14.148,37.493,14.656z"/>
	</g>
	<g>
		<path class="st0" d="M15.923,19.273c-0.458-0.515,0.945-2.186,3.129-3.732c0.815-0.577,1.624-1.056,2.341-1.403
			c1.206-0.582,2.157-0.79,2.44-0.466"/>
		<path class="st0" d="M15.477,21.008c1.125,0.18,3.871-0.512,6.502-2.373c2.621-1.857,4.108-4.162,4.186-5.181
			c0.04-0.576,0.103-1.477-0.427-2.073l-0.429-0.485c-0.329-0.374-1.614-0.773-2.285-0.786c-1.182-0.021-3.914,0.746-6.391,2.499
			c-2.484,1.759-3.835,3.881-4.069,4.917c-0.131,0.583-0.061,1.41,0.5,2.043l0.43,0.484C14.018,20.645,14.846,20.906,15.477,21.008z
			"/>
	</g>
	<g>
		<path class="st0" d="M14.009,43.607c-0.8,0.159-2.113-1.832-2.938-4.447c-0.309-0.976-0.504-1.9-0.585-2.686
			c-0.14-1.316,0.039-2.24,0.54-2.339"/>
		<path class="st1" d="M15.818,44.796c0.709-0.896,1.125-3.606,0.132-6.752c-0.986-3.139-2.997-5.499-4.146-6.036
			c-0.648-0.302-1.66-0.772-2.59-0.587l-0.751,0.147c-0.578,0.116-1.613,1.05-1.923,1.628c-0.551,1.019-0.874,3.749,0.059,6.714
			c0.938,2.973,2.798,5.128,3.892,5.811c0.621,0.382,1.608,0.706,2.588,0.508l0.753-0.147
			C14.749,45.898,15.423,45.298,15.818,44.796z"/>
	</g>
	<g>
		<path class="st2" d="M27.497,25.178c0.576,0.304,0,2.035-1.281,3.872c-0.478,0.685-0.987,1.287-1.469,1.757
			c-0.807,0.791-1.534,1.207-1.893,1.017"/>
		<path class="st0" d="M27.24,23.643c-1.02,0.144-3.089,1.424-4.631,3.634c-1.538,2.201-1.954,4.476-1.645,5.33
			c0.174,0.483,0.448,1.237,1.118,1.591l0.54,0.284c0.415,0.22,1.649,0.214,2.22,0.049c1.009-0.288,3.039-1.626,4.492-3.705
			c1.455-2.087,1.822-4.177,1.642-5.086c-0.104-0.513-0.463-1.173-1.169-1.543l-0.54-0.286C28.607,23.56,27.81,23.56,27.24,23.643z"
			/>
	</g>
	<g>
		<path class="st2" d="M3.794,26.291c-0.423-0.025-0.551-1.206-0.29-2.641c0.097-0.533,0.235-1.028,0.394-1.437
			c0.263-0.687,0.581-1.13,0.845-1.114"/>
		<path class="st0" d="M4.362,27.129c0.564-0.361,1.442-1.68,1.757-3.405c0.315-1.718-0.055-3.177-0.469-3.601
			c-0.234-0.237-0.601-0.609-1.093-0.637l-0.397-0.023c-0.305-0.018-1.034,0.319-1.327,0.573c-0.52,0.443-1.359,1.785-1.656,3.408
			c-0.297,1.629,0.053,2.966,0.405,3.455c0.2,0.275,0.591,0.568,1.109,0.597l0.397,0.024C3.575,27.548,4.047,27.332,4.362,27.129z"
			/>
	</g>
	<g>
		<path class="st2" d="M30.739,4.274c-0.029-0.422,1.127-0.696,2.583-0.615c0.542,0.028,1.049,0.105,1.474,0.212
			c0.714,0.175,1.193,0.435,1.211,0.699"/>
		<path class="st0" d="M29.977,4.942c0.429,0.516,1.846,1.223,3.597,1.32c1.745,0.098,3.146-0.45,3.514-0.914
			c0.206-0.263,0.531-0.671,0.497-1.163l-0.027-0.396c-0.02-0.306-0.446-0.986-0.733-1.246c-0.504-0.46-1.94-1.126-3.588-1.219
			c-1.653-0.091-2.935,0.422-3.378,0.832c-0.247,0.233-0.49,0.657-0.454,1.176l0.026,0.398C29.464,4.213,29.737,4.656,29.977,4.942z
			"/>
	</g>
</g>
</svg>
