<?xml version="1.0" encoding="utf-8"?>
<!-- Generator: Adobe Illustrator 21.1.0, SVG Export Plug-In . SVG Version: 6.00 Build 0)  -->
<svg version="1.1" id="Слой_1" xmlns="http://www.w3.org/2000/svg" xmlns:xlink="http://www.w3.org/1999/xlink" x="0px" y="0px"
	 viewBox="0 0 47.161 48.5" style="enable-background:new 0 0 47.161 48.5;" xml:space="preserve">
<style type="text/css">
	.st0{fill:#D51900;}
</style>
<path class="st0" d="M45.596,9.523c-0.513-2.439-2.075-4.14-4.18-4.551c-1.996-0.39-3.717,0.415-5.235,1.125
	c-2.043,0.956-3.52,1.646-5.248-0.322c-3.541-4.033-7.565-3.992-8.054-3.971c-0.333-0.015-2.354-0.033-4.739,1.277
	c-0.324,0.178-0.443,0.586-0.265,0.91s0.585,0.443,0.91,0.265c2.195-1.206,4.035-1.113,4.051-1.113c0.028,0.002,0.059,0.002,0.086,0
	c0.152-0.009,3.763-0.176,7.004,3.516c2.392,2.724,4.746,1.623,6.823,0.652c1.398-0.654,2.843-1.33,4.41-1.023
	c1.559,0.304,2.727,1.617,3.126,3.512c0.451,2.147-0.12,5.391-3.075,7.813c-0.002-0.004-0.004-0.008-0.006-0.012
	c-0.047-0.093-0.097-0.184-0.149-0.273c-0.014-0.024-0.028-0.048-0.042-0.071c-0.048-0.081-0.098-0.161-0.149-0.238
	c-0.021-0.032-0.043-0.062-0.064-0.093c-0.035-0.05-0.07-0.099-0.105-0.147c-0.09-0.121-0.182-0.239-0.28-0.351
	c2.852-3.436,2.763-5.582,2.158-6.793c-0.44-0.88-1.05-1.44-1.814-1.666c-1.536-0.454-3.242,0.552-4.747,1.44
	c-0.322,0.19-0.627,0.37-0.911,0.523c-1.3,0.703-1.882,2.378-2.446,3.998c-0.599,1.722-1.219,3.503-2.597,3.891
	c-1.645,0.463-1.914,2.394-1.915,4.694c0,0.006-0.001,0.012-0.001,0.018l0.001,0.046c0.001,0.528,0.015,1.075,0.029,1.627
	c0.071,2.741,0.151,5.847-1.326,7.237c-0.135,0.127-0.211,0.303-0.211,0.488v4.099c0,0.37,0.3,0.67,0.67,0.67
	c0.37,0,0.67-0.3,0.67-0.67v-3.825c1.542-1.681,1.612-4.545,1.555-7.236l6.498-2.922c1.165,1.308,2.772,1.807,4.056,1.21
	c1.411-0.656,2.025-2.454,1.605-4.317C45.429,16.118,46.145,12.137,45.596,9.523z M30.419,19.11c2.051-0.577,2.821-2.789,3.5-4.74
	c0.502-1.442,0.976-2.805,1.818-3.26c0.306-0.166,0.621-0.351,0.954-0.548c1.207-0.712,2.708-1.597,3.686-1.309
	c0.399,0.118,0.724,0.438,0.995,0.98c0.784,1.568-0.881,3.984-1.976,5.317c-0.984-0.634-2.108-0.809-3.066-0.364
	c-1.282,0.596-1.937,2.143-1.69,3.875l-5.134,2.394C29.575,20.225,29.8,19.284,30.419,19.11z M39.517,22.041
	c-0.826,0.384-1.957-0.114-2.751-1.211c-0.186-0.257-0.528-0.349-0.817-0.218l-6.45,2.9l-0.011-0.571l6.193-2.888
	c0.291-0.136,0.444-0.458,0.367-0.769c-0.327-1.314,0.021-2.5,0.847-2.884c0.855-0.398,2.024,0.174,2.797,1.277
	c0.002,0.004,0.005,0.007,0.008,0.011c0.027,0.039,0.053,0.078,0.079,0.118c0.016,0.025,0.032,0.051,0.048,0.077
	c0.024,0.039,0.048,0.079,0.072,0.12c0.022,0.037,0.043,0.075,0.063,0.113c0.01,0.019,0.02,0.038,0.03,0.057
	c0.03,0.058,0.059,0.117,0.087,0.176c0.037,0.08,0.072,0.162,0.105,0.246c0.002,0.006,0.005,0.011,0.007,0.017
	c0.031,0.078,0.059,0.158,0.085,0.239C40.724,20.231,40.422,21.621,39.517,22.041z"/>
<path class="st0" d="M27.303,37.931c-0.37,0-0.67,0.3-0.67,0.67v5.488c0,0.818-0.491,1.523-1.194,1.836V28.523
	c0.921-0.893,0.862-2.899,0.788-5.372c-0.07-2.362-0.15-5.039,0.796-6.064c1.102-1.194,3.502-6.588,3.772-7.199
	c0.098-0.223,0.068-0.481-0.079-0.675c-0.147-0.194-0.388-0.293-0.628-0.259c-0.044,0.006-4.424,0.624-7.209,0.624
	c-2.785,0-7.165-0.618-7.209-0.624c-0.241-0.034-0.482,0.065-0.628,0.259c-0.147,0.194-0.177,0.452-0.079,0.675
	c0.27,0.611,2.67,6.005,3.772,7.199c0.778,0.843,0.853,2.901,0.831,4.599c-0.005,0.37,0.291,0.674,0.661,0.678
	c0.003,0,0.006,0,0.009,0c0.366,0,0.665-0.294,0.67-0.661c0.028-2.172-0.096-4.344-1.186-5.525c-0.616-0.667-2.008-3.488-3.04-5.741
	c1.53,0.189,4.211,0.48,6.199,0.48c1.988,0,4.669-0.291,6.199-0.48c-1.031,2.253-2.424,5.074-3.04,5.741
	c-1.316,1.427-1.232,4.266-1.15,7.012c0.035,1.164,0.067,2.263-0.019,3.117c-0.106,1.046-0.351,1.259-0.424,1.299
	c-0.213,0.118-0.345,0.342-0.345,0.586v17.906h-2.441V28.193c0-0.244-0.132-0.468-0.345-0.586c-0.064-0.036-0.283-0.218-0.398-1.077
	c-0.093-0.691-0.093-1.575-0.064-2.689c0.01-0.37-0.282-0.678-0.652-0.687c-0.37-0.011-0.678,0.282-0.687,0.652
	c-0.056,2.156-0.027,3.902,0.807,4.716v17.402c-0.702-0.314-1.192-1.018-1.192-1.835V31.93c0-0.185-0.076-0.361-0.211-0.488
	c-0.153-0.144-0.938-1.155-1.33-6.895l0.004-2.121l0-0.002c0.037-0.985,0.073-1.916-0.116-2.699
	c-0.242-1.002-0.838-1.643-1.771-1.905c-1.378-0.388-1.998-2.168-2.597-3.891c-0.564-1.62-1.146-3.296-2.446-3.998
	c-0.284-0.154-0.589-0.333-0.911-0.523C8.245,8.52,6.539,7.514,5.003,7.968C4.239,8.193,3.629,8.754,3.189,9.634
	c-1.118,2.236,0.76,5.12,2.246,6.896c-0.286,0.344-0.536,0.732-0.742,1.153c-0.005,0.01-0.011,0.02-0.016,0.03
	c-3.039-2.411-3.652-5.688-3.211-7.868c0.388-1.92,1.56-3.251,3.135-3.558c1.567-0.307,3.013,0.37,4.41,1.023
	c2.077,0.971,4.431,2.072,6.822-0.652c0.226-0.257,0.462-0.504,0.701-0.735c0.267-0.257,0.275-0.681,0.018-0.947
	s-0.681-0.274-0.947-0.018c-0.266,0.256-0.528,0.531-0.779,0.816c-1.728,1.969-3.205,1.278-5.248,0.322
	C8.061,5.387,6.34,4.582,4.344,4.972C2.251,5.381,0.645,7.146,0.153,9.579c-0.536,2.652,0.23,6.67,4.071,9.472
	c-0.371,1.823,0.247,3.563,1.63,4.205c1.282,0.596,2.887,0.099,4.051-1.205l6.371,2.962c0.381,5.157,1.097,6.65,1.511,7.178v11.898
	c0,1.755,1.357,3.198,3.077,3.338c0.04,0.008,0.082,0.012,0.125,0.012h0.148h3.487h0.146c0.042,0,0.083-0.004,0.122-0.012
	c1.722-0.137,3.082-1.581,3.082-3.338V38.6C27.973,38.23,27.673,37.931,27.303,37.931z M4.387,10.233
	c0.271-0.542,0.596-0.862,0.995-0.98c0.978-0.289,2.48,0.597,3.686,1.309c0.333,0.197,0.648,0.382,0.954,0.548
	c0.842,0.456,1.316,1.818,1.818,3.26c0.679,1.951,1.448,4.163,3.5,4.74c0.769,0.216,0.943,0.859,0.936,2.266l-4.981-2.316
	c0.247-1.731-0.408-3.278-1.69-3.874c-0.863-0.401-1.867-0.326-2.829,0.211c-0.121,0.068-0.239,0.142-0.355,0.223
	C5.296,14.265,3.593,11.821,4.387,10.233z M9.713,20.553c-0.209,0-0.414,0.099-0.543,0.277c-0.794,1.097-1.925,1.595-2.751,1.211
	c-0.951-0.442-1.237-1.954-0.684-3.4c0.008-0.021,0.017-0.042,0.025-0.063c0.011-0.027,0.021-0.054,0.033-0.081
	c0.021-0.049,0.042-0.098,0.065-0.146c0.027-0.059,0.056-0.117,0.086-0.174c0.006-0.011,0.012-0.022,0.018-0.033
	c0.028-0.052,0.056-0.104,0.085-0.154c0.002-0.003,0.004-0.007,0.006-0.01c0.207-0.356,0.459-0.676,0.742-0.941
	c0.005-0.004,0.009-0.009,0.013-0.014c0.195-0.18,0.403-0.334,0.622-0.457c0.577-0.322,1.149-0.381,1.611-0.166
	c0.826,0.384,1.174,1.57,0.847,2.884c-0.078,0.311,0.077,0.634,0.368,0.769l5.994,2.786l-0.001,0.306l-0.001,0.375l-6.253-2.907
	C9.904,20.573,9.808,20.553,9.713,20.553z"/>
</svg>
