<?xml version="1.0" encoding="utf-8"?>
<!-- Generator: Adobe Illustrator 21.1.0, SVG Export Plug-In . SVG Version: 6.00 Build 0)  -->
<svg version="1.1" id="Слой_1" xmlns="http://www.w3.org/2000/svg" xmlns:xlink="http://www.w3.org/1999/xlink" x="0px" y="0px"
	 viewBox="0 0 48.667 56.667" style="enable-background:new 0 0 48.667 56.667;" xml:space="preserve">
<style type="text/css">
	.st0{fill:none;stroke:#D51900;stroke-width:2;stroke-linecap:round;stroke-linejoin:round;stroke-miterlimit:10;}
	.st1{fill:none;stroke:#D51900;stroke-linecap:round;stroke-linejoin:round;stroke-miterlimit:10;}
	.st2{fill:#D51900;stroke:#D51900;stroke-width:0.5;stroke-linecap:round;stroke-linejoin:round;stroke-miterlimit:10;}
	.st3{fill:#D51900;stroke:#D51900;stroke-linecap:round;stroke-linejoin:round;stroke-miterlimit:10;}
</style>
<g>
	<path class="st0" d="M1.113,2.827c1.73,5.754,4.899,11.043,9.41,15.489c8.115,7.998,21.072,13.717,28.778,21.795
		c3.348,3.512,6.222,8.59,7.401,14.029"/>
	<path class="st1" d="M26.636,0.925c6.373,15.971-9.142,39.22-2.882,54.962"/>
	<line class="st0" x1="13.756" y1="10.653" x2="6.79" y2="13.233"/>
	<line class="st1" x1="28.226" y1="4.707" x2="18.131" y2="8.723"/>
	<line class="st1" x1="28.5" y1="11.067" x2="19.908" y2="14.484"/>
	<line class="st1" x1="27.723" y1="17.845" x2="23.441" y2="19.354"/>
	<line class="st0" x1="36.04" y1="47.694" x2="43.452" y2="44.938"/>
	<line class="st1" x1="22.017" y1="53.463" x2="31.665" y2="49.625"/>
	<line class="st1" x1="21.745" y1="47.104" x2="29.89" y2="43.865"/>
	<line class="st1" x1="22.521" y1="40.327" x2="25.911" y2="39.17"/>
	<line class="st0" x1="38.127" y1="53.211" x2="45.539" y2="50.459"/>
	<line class="st0" x1="10.721" y1="5.407" x2="3.755" y2="7.984"/>

		<ellipse transform="matrix(0.3958 -0.9183 0.9183 0.3958 6.8742 32.8114)" class="st2" cx="28.373" cy="11.181" rx="1.954" ry="1.955"/>

		<ellipse transform="matrix(0.3957 -0.9184 0.9184 0.3957 -0.328 36.1544)" class="st2" cx="27.308" cy="18.326" rx="1.957" ry="1.955"/>

		<ellipse transform="matrix(0.3959 -0.9183 0.9183 0.3959 12.1353 28.5363)" class="st2" cx="27.756" cy="5.045" rx="1.955" ry="1.956"/>

		<ellipse transform="matrix(0.3957 -0.9184 0.9184 0.3957 -11.1475 28.2653)" class="st3" cx="15.905" cy="22.604" rx="1.956" ry="1.955"/>

		<ellipse transform="matrix(0.3957 -0.9184 0.9184 0.3957 -12.1418 36.4845)" class="st3" cx="21.654" cy="27.469" rx="1.956" ry="1.955"/>

		<ellipse transform="matrix(0.3957 -0.9184 0.9184 0.3957 -22.8498 45.1747)" class="st2" cx="22.9" cy="39.949" rx="1.956" ry="1.956"/>

		<ellipse transform="matrix(0.3957 -0.9184 0.9184 0.3957 -11.7596 44.6103)" class="st3" cx="28.016" cy="31.24" rx="1.956" ry="1.955"/>

		<ellipse transform="matrix(0.396 -0.9183 0.9183 0.396 -29.372 48.7565)" class="st2" cx="22.374" cy="46.704" rx="1.956" ry="1.955"/>

		<ellipse transform="matrix(0.3956 -0.9184 0.9184 0.3956 -35.0007 53.1182)" class="st2" cx="22.857" cy="53.152" rx="1.956" ry="1.956"/>

		<ellipse transform="matrix(0.3956 -0.9184 0.9184 0.3956 -15.6564 66.7471)" class="st3" cx="42.883" cy="45.269" rx="1.956" ry="1.956"/>

		<ellipse transform="matrix(0.3953 -0.9185 0.9185 0.3953 -18.8811 72.2316)" class="st3" cx="45.422" cy="50.457" rx="1.955" ry="1.956"/>

		<ellipse transform="matrix(0.3961 -0.9182 0.9182 0.3961 -13.1132 60.1245)" class="st3" cx="39.151" cy="40.031" rx="1.956" ry="1.956"/>

		<ellipse transform="matrix(0.3958 -0.9184 0.9184 0.3958 -12.3731 52.5987)" class="st3" cx="33.784" cy="35.702" rx="1.956" ry="1.956"/>

		<ellipse transform="matrix(0.3957 -0.9184 0.9184 0.3957 -8.2924 13.8264)" class="st3" cx="6.36" cy="13.215" rx="1.955" ry="1.956"/>

		<ellipse transform="matrix(0.3962 -0.9182 0.9182 0.3962 -5.5231 7.7358)" class="st3" cx="3.12" cy="8.067" rx="1.956" ry="1.954"/>
	<line class="st0" x1="25.617" y1="25.976" x2="22.054" y2="27.153"/>
	<line class="st0" x1="28.033" y1="31.451" x2="24.47" y2="32.629"/>

		<ellipse transform="matrix(0.3956 -0.9184 0.9184 0.3956 -8.1315 39.4235)" class="st2" cx="25.888" cy="25.89" rx="1.955" ry="1.955"/>

		<ellipse transform="matrix(0.3956 -0.9184 0.9184 0.3956 -15.6904 42.1604)" class="st2" cx="24.188" cy="33.002" rx="1.955" ry="1.954"/>
	<line class="st0" x1="28.894" y1="37.793" x2="33.279" y2="36.047"/>
	<line class="st0" x1="20.458" y1="20.733" x2="16.554" y2="22.285"/>
	<line class="st0" x1="33.26" y1="42.333" x2="38.171" y2="40.33"/>

		<ellipse transform="matrix(0.3954 -0.9185 0.9185 0.3954 -10.5532 20.6313)" class="st3" cx="10.395" cy="18.332" rx="1.955" ry="1.956"/>
	<line class="st0" x1="16.537" y1="16.015" x2="11.372" y2="17.88"/>
</g>
</svg>
