<?xml version="1.0" encoding="utf-8"?>
<!-- Generator: Adobe Illustrator 21.1.0, SVG Export Plug-In . SVG Version: 6.00 Build 0)  -->
<svg version="1.1" id="Слой_1" xmlns="http://www.w3.org/2000/svg" xmlns:xlink="http://www.w3.org/1999/xlink" x="0px" y="0px"
	 viewBox="0 0 62.5 48" style="enable-background:new 0 0 62.5 48;" xml:space="preserve">
<style type="text/css">
	.st0{fill:none;stroke:#D51900;stroke-width:2;stroke-linecap:round;stroke-linejoin:round;stroke-miterlimit:10;}
	.st1{fill:none;stroke:#D51900;stroke-linecap:round;stroke-linejoin:round;stroke-miterlimit:10;}
</style>
<g>
	<g>
		<path class="st0" d="M8.364,35.873c-4.373-1.24-7.832-5.114-5.873-15.214c0.868-4.472,3.003-9.343,4.738-12.345
			c3.104-5.373,7.569-7.371,12.01-6.005c5.205,1.601,7.473,8.208,5.804,11.476c-1.667,3.271-5.471,4.005-5.471,4.005
			s1,1.2-0.067,3.068c-1.066,1.867-2.402,1.668-2.402,1.668s2.403,6.073,0.535,9.676C15.769,35.804,11.899,36.877,8.364,35.873z"/>
		<path class="st1" d="M17.102,22.526c1.999,0.075,4.774,1.791,5.933,4.707c1.16,2.914,0.637,19.267,0.637,19.267h1.74
			c0,0,0.63-15.967,0-19.977c-0.696-4.414-4.954-8.74-5.84-8.74c0,0,0.913,1.834-0.067,3.072
			C18.634,21.953,18.46,22.54,17.102,22.526C16.919,22.524,17.102,22.526,17.102,22.526z"/>
	</g>
	<g>
		<path class="st0" d="M53.95,35.873c4.372-1.24,7.832-5.114,5.873-15.214c-0.868-4.472-3.003-9.343-4.738-12.345
			c-3.104-5.373-7.569-7.371-12.01-6.005c-5.205,1.601-7.473,8.208-5.804,11.476c1.667,3.271,5.471,4.005,5.471,4.005
			s-1,1.2,0.067,3.068c1.066,1.867,2.402,1.668,2.402,1.668s-2.403,6.073-0.535,9.676C46.544,35.804,50.414,36.877,53.95,35.873z"/>
		<path class="st1" d="M45.211,22.526c-1.999,0.075-4.774,1.791-5.933,4.707c-1.16,2.914-0.637,19.267-0.637,19.267h-1.74
			c0,0-0.63-15.967,0-19.977c0.696-4.414,4.954-8.74,5.84-8.74c0,0-0.913,1.834,0.067,3.072
			C43.679,21.953,43.853,22.54,45.211,22.526C45.394,22.524,45.211,22.526,45.211,22.526z"/>
	</g>
</g>
</svg>
