<?xml version="1.0" encoding="utf-8"?>
<!-- Generator: Adobe Illustrator 21.1.0, SVG Export Plug-In . SVG Version: 6.00 Build 0)  -->
<svg version="1.1" id="Слой_1" xmlns="http://www.w3.org/2000/svg" xmlns:xlink="http://www.w3.org/1999/xlink" x="0px" y="0px"
	 viewBox="0 0 56.958 46.5" style="enable-background:new 0 0 56.958 46.5; fill: #D51900; " xml:space="preserve">

<path class="st0" d="M33.658,37.917h-3.514c-0.422,0-0.832-0.144-1.162-0.408l-1.364-1.091c-0.367-0.294-0.484-0.801-0.282-1.225
	c0,0,0.03-1.005,1.458-2.166c0,0,1.143-0.653,1.572-0.714c1.021-0.146,2.792,0.208,2.792,0.208l1.271,0.194
	c0.658,0.128,1.729-0.178,1.729-0.178c0.571-0.144,1.046-0.611,1.351-1.115l0.75-1.241c0.261-0.432,0.399-0.926,0.399-1.431
	c0,0,0.339-2.906,0-3.791c-0.312-0.816-1.281-1.875-2.375-2.563c-1.16-0.729-3.375-1.813-3.375-1.813S31.6,20.164,31.2,21.125
	c-0.417,1,0.833,1.271,0.833,1.271s2.711,1.272,3.5,1.875c0.328,0.25,0.872,0.92,1,1.313c0.272,0.832-0.063,3.5-0.063,3.5
	s-0.702,1.331-1.673,1.25c-2.609-0.219-4.659-0.516-5.64-0.25c-0.719,0.195-1.994,1.077-2.5,1.625
	c-0.359,0.389-1.188,1.75-1.188,1.75s-6.114,0.453-8.063-0.063c-0.645-0.171-1.761-0.984-2.25-1.437
	c-0.401-0.372-1.313-1.75-1.313-1.75s-6.2,0.648-8.125,0c-1.249-0.421-3.177-2.413-3.979-3.458
	c-0.426-0.556-0.927-1.901-1.083-2.583c-0.422-1.848-0.297-5.711,0-7.583c0.153-0.963,0.907-2.79,1.333-3.667
	c0.551-1.133,2.004-3.218,2.833-4.167c1.013-1.159,3.448-3.096,4.75-3.917c1.784-1.125,5.747-2.674,7.75-3.333
	C18.89,0.985,23.741,0,23.741,0s-2.487,2.327-3.25,3.167c-0.443,0.488-1.25,1.557-1.5,2.167c-0.15,0.366-0.217,1.252,0,1.583
	c0.199,0.304,0.988,0.698,1.333,0.583c0.716-0.238,1.608-1.601,2.083-2.188C23.12,4.433,25.491,2,25.491,2s1.941-1.162,2.667-1.333
	c1.946-0.46,8,0,8,0s2.068,0.395,2.729,0.625c0.611,0.213,1.77,0.424,1.896,0.938c0.18,0.735-1.126,2.078-1.792,2.437
	c-0.534,0.288-1.728,0.621-2.333,0.667c-0.914,0.069-2.753-0.156-3.667-0.083c-0.396,0.031-1.25,0.229-1.25,0.979
	c0,0.771,0.659,0.904,1,0.938c1.14,0.111,3.442,0.099,4.583,0c0.893-0.077,2.271-0.396,3.417-1.083c0.455-0.273,0.809-0.377,1.5-1.5
	c0.5-0.813,0.143-1.639,0.583-1.833c1.346-0.595,4.026,1.848,5.25,2.667C49.142,6.13,51,7.926,51.908,8.833
	C52.63,9.556,53.955,11.13,54.491,12c0.455,0.738,1.417,3.167,1.417,3.167s0.543,1.802,0.667,2.417c0.384,1.899,0.625,4.792,0,7.75
	c-0.173,0.819-0.74,2.404-1.083,3.167c-0.257,0.57-0.959,1.688-1.5,2c-0.74,0.427-2.622,0.312-3.417,0
	c-0.741-0.291-1.728-1.65-2.333-2.167c-0.425-0.363-1.454-0.881-2-1c-0.616-0.134-1.928,0.068-2.5,0.333
	c-0.628,0.291-1.544,1.396-2,1.917c-0.462,0.527-1.27,1.732-1.417,2.417c-0.059,0.277,0.1,0.923,0.333,1.083
	c0.258,0.178,0.996,0.099,1.25-0.083c0.606-0.435,1.237-1.875,1.75-2.417c0.398-0.42,1.421-1.153,2-1.167
	c0.729-0.018,1.954,1.017,2.5,1.5c0.441,0.391,1.122,1.441,1.667,1.667c0.885,0.367,3.833,0,3.833,0s-2.959,3.208-4.167,4
	c-1.333,0.875-3.167,1.333-3.167,1.333h-8.417l-0.172,1.315c-0.052,0.395-0.01,0.797,0.122,1.174l0.966,2.761l0.556,1.597
	c0.071,0.205,0.059,0.429-0.033,0.625l0,0c-0.319,0.678-1.001,1.111-1.75,1.111l0,0c-0.363,0-0.688-0.228-0.811-0.57
	c0,0-1.482-4.138-1.988-5.514C34.158,38.677,33.658,37.917,33.658,37.917z M5.658,16.615l0.354,0.058
	c0.423,0.069,0.824-0.216,0.92-0.653c0,0,0.451-1.639,0.685-2.195c0.299-0.711,0.646-1.748,1.563-2.535
	c0.972-0.834,3.015-1.021,3.121-1.03c0.008-0.001,0,0,0.008,0c0.092,0,1.729-0.097,2.684-0.281c0.324-0.062,0.406-0.739,0.334-1.075
	c-0.062-0.288-0.316-0.553-0.563-0.695c-0.983-0.564-3.378-0.066-4.479,0.175c-0.845,0.185-2.396,0.918-3.188,1.835
	c-0.593,0.688-1.31,2.179-1.646,3.037c-0.212,0.541-0.489,2.284-0.489,2.284C4.853,16.043,5.173,16.536,5.658,16.615z
	 M14.318,25.116l-0.089-0.348c-0.106-0.415-0.528-0.669-0.967-0.581c0,0-1.682,0.243-2.286,0.252
	c-0.771,0.011-1.86,0.108-2.948-0.417c-1.154-0.557-2.143-2.354-2.194-2.447c-0.004-0.007,0,0-0.004-0.007
	c-0.037-0.084-0.782-1.545-1.332-2.347c-0.187-0.272-0.84-0.076-1.119,0.124C3.141,19.517,3,19.857,2.969,20.14
	c-0.123,1.127,1.292,3.122,1.954,4.034c0.508,0.7,1.8,1.828,2.958,2.186c0.868,0.268,2.521,0.327,3.442,0.292
	c0.581-0.023,2.289-0.467,2.289-0.467C14.116,26.082,14.439,25.592,14.318,25.116z M14.413,19.706l0.129,0.362
	c0.154,0.432,0.61,0.675,1.044,0.558c0,0,1.672-0.354,2.28-0.397c0.778-0.056,1.867-0.221,3.026,0.27
	c1.229,0.521,2.434,2.359,2.496,2.455c0.004,0.007,0,0,0.004,0.007c0.047,0.086,0.966,1.585,1.614,2.399
	c0.22,0.276,0.857,0.032,1.116-0.195c0.222-0.195,0.326-0.561,0.324-0.862c-0.004-1.195-1.662-3.219-2.435-4.143
	c-0.593-0.709-2.028-1.824-3.239-2.135c-0.908-0.233-2.585-0.201-3.511-0.11c-0.584,0.057-2.259,0.624-2.259,0.624
	C14.507,18.675,14.236,19.211,14.413,19.706z M50.918,23.457l0.007-0.359c0.008-0.428-0.332-0.785-0.779-0.817
	c0,0-1.687-0.211-2.271-0.362c-0.747-0.194-1.823-0.388-2.733-1.183c-0.965-0.842-1.443-2.837-1.467-2.941
	c-0.002-0.007,0,0-0.002-0.008c-0.013-0.091-0.344-1.697-0.663-2.616c-0.108-0.311-0.79-0.296-1.112-0.177
	c-0.276,0.102-0.502,0.392-0.607,0.657c-0.417,1.054,0.419,3.353,0.816,4.408c0.304,0.809,1.252,2.239,2.274,2.891
	c0.766,0.489,2.344,0.984,3.242,1.193c0.566,0.132,2.331,0.156,2.331,0.156C50.467,24.335,50.908,23.948,50.918,23.457z
	 M42.198,9.19l-0.001,0.359c-0.002,0.428,0.344,0.78,0.791,0.805c0,0,1.69,0.186,2.276,0.329c0.75,0.183,1.828,0.362,2.749,1.143
	c0.977,0.828,1.484,2.816,1.51,2.919c0.002,0.007,0,0,0.002,0.008c0.015,0.091,0.369,1.692,0.701,2.606
	c0.112,0.31,0.794,0.284,1.114,0.16c0.275-0.106,0.496-0.4,0.597-0.666c0.402-1.06-0.468-3.346-0.88-4.395
	c-0.316-0.805-1.284-2.221-2.316-2.858c-0.773-0.477-2.359-0.949-3.259-1.146c-0.568-0.124-2.333-0.122-2.333-0.122
	C42.636,8.305,42.2,8.699,42.198,9.19z M38.377,11.011l-0.249-0.293c-0.297-0.35-0.812-0.413-1.179-0.145c0,0-1.451,0.939-2.009,1.2
	c-0.714,0.335-4.647,1.862-7.41,0.949c-1.274-0.421-3.122-1.334-3.214-1.401c-0.007-0.005-0.001,0-0.007-0.005
	c-0.075-0.064-1.467-1.139-2.363-1.669c-0.304-0.18-0.819,0.281-0.983,0.588c-0.141,0.264-0.11,0.646-0.003,0.928
	c0.424,1.122,2.696,2.421,3.749,3.01c0.808,0.451,4.045,0.839,5.303,0.857c1.688,0.024,4.781-0.425,6.309-1.3
	c0.515-0.295,1.91-1.406,1.91-1.406C38.651,12.013,38.718,11.412,38.377,11.011z"/>
</svg>
