<?xml version="1.0" encoding="utf-8"?>
<!-- Generator: Adobe Illustrator 21.1.0, SVG Export Plug-In . SVG Version: 6.00 Build 0)  -->
<svg version="1.1" id="Слой_1" xmlns="http://www.w3.org/2000/svg" xmlns:xlink="http://www.w3.org/1999/xlink" x="0px" y="0px"
	 viewBox="0 0 56.125 50" style="enable-background:new 0 0 56.125 50;" xml:space="preserve">
<style type="text/css">
	.st0{fill:none;stroke:#D51900;stroke-width:2;stroke-linecap:round;stroke-linejoin:round;stroke-miterlimit:10;}
	.st1{fill:none;stroke:#D51900;stroke-linecap:round;stroke-linejoin:round;stroke-miterlimit:10;}
</style>
<g>
	<path class="st0" d="M1.841,21.422c0,0-2.039-5.373,3.057-7.875c0,0,0.278-5.929,7.133-7.318c0,0,1.946-2.594,5.003-2.131
		c0,0,1.852-1.667,4.446-1.019c0,0,1.668-1.853,6.484-0.742c0,0,6.486-2.778,11.396,2.779c0,0,4.816,0.094,6.207,3.429
		c0,0,4.725,1.853,4.909,5.186c0,0,4.461,2.039,2.039,7.412c0,0,2.422,4.104-0.093,6.763c-2.28,2.409-7.227,2.038-7.227,2.038
		s-2.687,1.76-5.002-0.277c0,0-1.113,2.964-4.817,2.779c0,0-3.983,3.521-8.43,0.74c0,0-6.578,1.431-10.376-2.131
		c0,0-5.002,1.668-7.967-0.74C8.603,30.315,0.252,31.334,1.841,21.422z"/>
	<path class="st0" d="M23.055,35.688c0.094,1.112,1.297,6.762,4.54,7.597c3.243,0.834,5.096,3.983,5.652,5.002
		c0.556,1.019,7.134-0.37,6.484-2.13c-0.649-1.761-1.575-4.632-2.408-5.651c-0.833-1.02-2.316-5.096-1.668-7.598"/>
	<path class="st0" d="M51.404,31.056c0.186,1.112-0.371,4.447-2.779,6.115c-2.409,1.667-8.244,5.93-11.303,3.335"/>
	<g>
		<path class="st1" d="M8.789,26.054c0,0,1.667-1.481,2.594-1.852c0.926-0.372,1.481-2.596,1.296-3.336
			c-0.186-0.742,1.018,3.52,2.686,3.149c1.668-0.371,3.798-2.779,3.798-2.779"/>
		<path class="st1" d="M6.843,22.163c-1.297-0.741-3.415-1.669-5.002-0.741"/>
		<path class="st1" d="M19.164,17.531c0,0-2.964-4.076-7.688-1.112c-4.725,2.965-7.135-3.309-7.135-3.309"/>
		<path class="st1" d="M12.31,12.528c0,0,0.597,3.566-1.233,4.119"/>
		<path class="st1" d="M15.829,10.953c0,0,2.595-1.39,2.409-2.501c-0.185-1.112-1.75-4.405-1.75-4.405"/>
		<path class="st1" d="M21.851,10.119c0,0-3.005,0.145-3.613-1.667"/>
		<path class="st1" d="M24.352,14.588c0,0,4.817-1.315,3.706-5.3c-1.112-3.985-0.464-7.03-0.464-7.03"/>
		<path class="st1" d="M31.416,10.123c0,0-3.323-0.373-3.569-1.671"/>
		<path class="st1" d="M35.469,10.123c0,0,4.725-2.135,3.892-5.007"/>
		<path class="st1" d="M39.775,12.528c0,0,3.384,3.149,5.515-4.076"/>
		<path class="st1" d="M45.29,15.32c0,0-1.545-3.107-0.98-4.367"/>
		<path class="st1" d="M46.679,20.124c0,0,5.441,2.773,6.38-1.3"/>
		<path class="st1" d="M45.29,25.248c0,0-0.927,1.917-0.094,4.696"/>
		<path class="st1" d="M37.464,24.756c0,0,6.997-2.775,0-7.548"/>
		<path class="st1" d="M43.436,23.417c0,0-2.649-1.122-3.661-0.248"/>
		<path class="st1" d="M26.854,22.163c0,0,3.613,0.362,3.798-2.228c0.186-2.591-1.112-3.146,0-4.165"/>
		<path class="st1" d="M34.821,21.598c0,0-3.794-0.809-4.168-2.622"/>
		<path class="st1" d="M34.821,27.596c0,0-1.297,1.237,0.556,4.851"/>
		<path class="st1" d="M28.762,26.701c0,0-3.113,1.668-1.815,6.485"/>
		<path class="st1" d="M19.627,26.701c0,0-3.696-0.234-2.821,4.561"/>
	</g>
</g>
</svg>
