<?xml version="1.0" encoding="utf-8"?>
<!-- Generator: Adobe Illustrator 21.1.0, SVG Export Plug-In . SVG Version: 6.00 Build 0)  -->
<svg version="1.1" id="Capa_1" xmlns="http://www.w3.org/2000/svg" xmlns:xlink="http://www.w3.org/1999/xlink" x="0px" y="0px"
	 viewBox="0 0 511.999 511.999" style="enable-background:new 0 0 511.999 511.999; fill: #D51900;" xml:space="preserve">
<g>
	<g>
		<path d="M420.995,437.989h-81.128c2.647-5.094,4.153-10.873,4.153-17c0-20.401-16.598-36.999-36.999-36.999h-68.262
			c-9.602,0-18.677-4.193-24.9-11.504l-30.938-36.345c-24.965-29.328-61.373-46.149-99.888-46.149H10.006c-5.522,0-10,4.477-10,10
			v129.65c0,3.479,1.808,6.707,4.772,8.525l83.289,51.07c24.271,14.883,52.15,22.75,80.621,22.75l252.307,0.012
			c0.002,0,0.002,0,0.003,0c9.882,0,19.174-3.849,26.16-10.836c6.989-6.988,10.838-16.28,10.838-26.175
			C457.994,454.586,441.397,437.989,420.995,437.989z M433.016,487.022c-3.211,3.211-7.479,4.979-12.02,4.979
			c-0.001,0-0.001,0-0.001,0l-252.308-0.013c-24.778-0.001-49.042-6.848-70.165-19.8l-78.517-48.144V309.992H83.03
			c32.644,0,63.501,14.256,84.661,39.113l30.938,36.345c10.029,11.783,24.655,18.539,40.129,18.539h68.262c9.374,0,17,7.626,17,17
			s-7.626,17-17,17H198.979c-7.075,0-13.95-2.039-19.882-5.896l-37.998-24.714c-2.299-2.805-6.043-4.256-9.838-3.444
			c-5.399,1.158-8.839,6.474-7.681,11.874l0.14,0.651c0.554,2.585,2.108,4.845,4.325,6.287l40.147,26.112
			c9.185,5.974,19.829,9.131,30.785,9.131h222.016c9.374,0,17,7.626,17,17.013C437.995,479.542,436.227,483.811,433.016,487.022z"/>
	</g>
</g>
<g>
	<g>
		<path d="M385.565,90.568c-1.859-1.86-4.429-2.93-7.069-2.93c-2.63,0-5.21,1.07-7.07,2.93c-1.86,1.86-2.93,4.44-2.93,7.07
			s1.069,5.21,2.93,7.07c1.87,1.86,4.44,2.93,7.07,2.93c2.64,0,5.21-1.07,7.069-2.93c1.87-1.86,2.94-4.44,2.94-7.07
			S387.435,92.428,385.565,90.568z"/>
	</g>
</g>
<g>
	<g>
		<path d="M507.221,73.833l-83.289-51.071c-24.27-14.883-52.148-22.749-80.62-22.75L91.005,0c0,0,0,0-0.001,0
			C81.121,0,71.83,3.849,64.842,10.836c-6.989,6.989-10.838,16.28-10.838,26.175c0,20.401,16.599,36.999,36.999,36.999h81.128
			c-2.647,5.094-4.153,10.873-4.153,17c0,20.401,16.598,36.999,36.999,36.999h68.262c9.602,0,18.678,4.193,24.9,11.504
			l30.938,36.345c24.965,29.328,61.373,46.149,99.889,46.149h73.025c5.522,0,10-4.477,10-10V82.358
			C511.993,78.88,510.186,75.651,507.221,73.833z M491.993,202.008h-63.025c-32.644,0-63.501-14.257-84.661-39.113l-30.938-36.345
			c-10.029-11.783-24.655-18.54-40.129-18.54h-68.262c-9.374,0-17-7.626-17-17s7.626-17,17-17h108.043
			c7.076,0,13.95,2.039,19.881,5.897L343.806,87c4.63,3.012,10.824,1.699,13.835-2.931c3.012-4.63,1.699-10.824-2.931-13.835
			l-10.904-7.092c-9.184-5.974-19.828-9.131-30.785-9.131H91.004c-9.374,0-17-7.626-17-17.013c0-4.541,1.769-8.81,4.979-12.021
			C82.193,21.767,86.464,20,91.004,20l252.307,0.012c24.779,0.001,49.043,6.849,70.166,19.801l78.517,48.145L491.993,202.008
			L491.993,202.008z"/>
	</g>
</g>
<g>
	<g>
		<path d="M288.819,179.411c-11.849,0-23.385,3.997-32.819,11.189c-9.435-7.193-20.971-11.189-32.819-11.189
			c-30.425,0-55.179,25.566-55.179,56.993c0,21.265,14.341,43.916,42.623,67.322c20.007,16.557,39.744,27.421,40.575,27.875
			c1.495,0.818,3.147,1.228,4.8,1.228c1.653,0,3.305-0.409,4.8-1.228c0.831-0.454,20.568-11.319,40.575-27.875
			c28.282-23.406,42.623-46.057,42.623-67.322C343.997,204.979,319.244,179.411,288.819,179.411z M255.995,311.319
			c-22.686-13.397-67.993-46.105-67.993-74.914c0-20.398,15.782-36.993,35.179-36.993c9.688,0,18.718,4.059,25.423,11.43
			c1.895,2.083,4.58,3.271,7.396,3.271c2.816,0,5.502-1.188,7.396-3.271c6.706-7.371,15.735-11.43,25.423-11.43
			c19.398,0,35.179,16.595,35.179,36.993C323.998,265.154,278.676,297.901,255.995,311.319z"/>
	</g>
</g>
<g>
	<g>
		<path d="M299.994,213.589c-0.187-0.207-0.375-0.412-0.566-0.614c-3.794-4.014-10.123-4.192-14.137-0.398
			s-4.192,10.123-0.398,14.137l0.23,0.249c1.975,2.196,4.701,3.313,7.438,3.313c2.383,0,4.773-0.846,6.684-2.564
			C303.351,224.018,303.687,217.695,299.994,213.589z"/>
	</g>
</g>
<g>
	<g>
		<path d="M300.286,242.809c-4.806-2.716-10.908-1.024-13.626,3.785c-7.592,13.429-28.177,26.763-35.468,30.768
			c-4.84,2.653-6.615,8.726-3.966,13.569c1.818,3.319,5.245,5.2,8.782,5.2c1.622,0,3.268-0.396,4.791-1.229
			c1.272-0.696,31.304-17.297,43.271-38.467C306.788,251.627,305.093,245.527,300.286,242.809z"/>
	</g>
</g>
</svg>
