<?xml version="1.0" encoding="utf-8"?>
<!-- Generator: Adobe Illustrator 21.1.0, SVG Export Plug-In . SVG Version: 6.00 Build 0)  -->
<svg version="1.1" id="Layer_1" xmlns="http://www.w3.org/2000/svg" xmlns:xlink="http://www.w3.org/1999/xlink" x="0px" y="0px"
	 viewBox="0 0 463 463" style="enable-background:new 0 0 463 463; fill: #D51900;" xml:space="preserve">
<g transform="translate(0 -540.36)">
	<g>
		<g>
			<circle cx="339" cy="962.308" r="7.5"/>
			<path d="M340.4,592.91L340.4,592.91c-2.9-0.8-72.3-20.2-109-20.2c-37.9,0-107.4,19.4-110.3,20.2c-3.9,1.1-6.2,5.1-5.2,9
				l19.9,79.6c0.8,3.4,3.9,5.7,7.3,5.7c0.4,0,0.8,0,1.3-0.1c0.6-0.1,58.2-9.8,87.1-9.8c27.7,0,86.5,9.8,87.1,9.9
				c3.9,0.7,7.6-1.8,8.5-5.7l18.7-79.6C346.6,598.01,344.3,594.01,340.4,592.91z M314,671.31c-15.1-2.4-51.1-7.7-75.1-8.8v-40h-15
				v40c-24.7,1-60.4,6.4-75.3,8.8l-16.5-65.8c18.7-4.9,70.1-17.7,99.2-17.7c28.2,0,79.5,12.9,98.1,17.8L314,671.31z"/>
			<path d="M377,540.41L377,540.41H84.6c-23.1,0-44.5,8.7-60.2,24.4C8.6,580.61,0,601.91,0,625.01v292.4c0,48.2,37.2,85.9,84.7,85.9
				h292.4c23.1,0,44.7-8.9,60.8-25.1c16.2-16.2,25.1-37.8,25.1-60.8v-292.4C462.9,577.61,425.2,540.41,377,540.41z M447.9,917.51
				c0,39.1-31.8,70.9-70.9,70.9l0,0H84.6c-39.1,0-69.7-31.1-69.7-70.9v-196.6h433V917.51z M447.9,706.01h-433v-80.9
				c0-39.8,29.9-69.7,69.7-69.7l0,0H377c39.8,0,70.9,30.6,70.9,69.7V706.01z"/>
			<path d="M372,969.81c31.6,0,57.3-25.7,57.3-57.3c0-4.1-3.4-7.5-7.5-7.5s-7.5,3.4-7.5,7.5c0,23.3-19,42.3-42.3,42.3
				c-4.1,0-7.5,3.4-7.5,7.5S367.9,969.81,372,969.81z"/>
			<path d="M73.4,572.81c-22.7,0-41.1,18.4-41.1,41.1c0,4.1,3.4,7.5,7.5,7.5s7.5-3.4,7.5-7.5c0-14.6,11.5-26.1,26.1-26.1
				c4.1,0,7.5-3.4,7.5-7.5S77.5,572.81,73.4,572.81z"/>
		</g>
	</g>
</g>
</svg>
