<?xml version="1.0" encoding="utf-8"?>
<!-- Generator: Adobe Illustrator 19.2.1, SVG Export Plug-In . SVG Version: 6.00 Build 0)  -->
<svg version="1.1" id="Layer_1" xmlns="http://www.w3.org/2000/svg" xmlns:xlink="http://www.w3.org/1999/xlink" x="0px" y="0px"
	 viewBox="0 0 473.9 473.9" style="enable-background:new 0 0 473.9 473.9;" xml:space="preserve">
<style type="text/css">
	.st0{fill:#3B5998;}
	.st1{fill:#FFFFFF;}
</style>
<path class="st0" d="M433.6,473.9H41.8c-22.6,0-41-18.5-41-41V41c0-22.6,18.5-41,41-41h391.9c22.6,0,41,18.5,41,41v391.9
	C474.7,455.5,456.2,473.9,433.6,473.9z"/>
<g>
	<path class="st1" d="M339.9,30.2l-57.6-0.1c-64.7,0-106.4,42.9-106.4,109.2v50.4h-57.9c-5,0-9,4.1-9,9.1v73c0,5,4.1,9,9,9h57.9
		v184.1c0,5,4,9,9,9h75.5c5,0,9-4.1,9-9V280.7h67.7c5,0,9-4,9-9l0-73c0-2.4-1-4.7-2.7-6.4s-4-2.7-6.4-2.7h-67.7V147
		c0-20.5,4.9-30.9,31.6-30.9l38.8,0c5,0,9-4.1,9-9V39.2C349,34.3,344.9,30.2,339.9,30.2z"/>
</g>
</svg>
