<?xml version="1.0" encoding="utf-8"?>
<!-- Generator: Adobe Illustrator 19.2.1, SVG Export Plug-In . SVG Version: 6.00 Build 0)  -->
<svg version="1.1" id="Layer_1" xmlns="http://www.w3.org/2000/svg" xmlns:xlink="http://www.w3.org/1999/xlink" x="0px" y="0px"
	 viewBox="0 0 473.9 473.9" style="enable-background:new 0 0 473.9 473.9;" xml:space="preserve">
<style type="text/css">
	.st0{fill:#DC4B39;}
	.st1{fill:#FFFFFF;}
</style>
<path class="st0" d="M432.9,473.9H41c-22.6,0-41-18.5-41-41V41C0,18.5,18.5,0,41,0h391.9c22.6,0,41,18.5,41,41v391.9
	C473.9,455.5,455.5,473.9,432.9,473.9z"/>
<g>
	<path class="st1" d="M231.4,117.3c2.2,1.4,4.6,3.3,7.4,5.9c2.6,2.7,5.2,6.1,7.7,10c2.4,3.7,4.5,8.1,6.4,13.2
		c1.5,5.1,2.3,11,2.3,17.8c-0.2,12.4-2.9,22.4-8.2,29.8c-2.6,3.6-5.3,6.9-8.2,10c-3.2,3-6.6,6.2-10.2,9.3c-2.1,2.1-4,4.6-5.7,7.3
		c-2.1,2.8-3.1,6.1-3.1,9.8c0,3.6,1.1,6.6,3.2,9c1.8,2.3,3.6,4.2,5.3,5.9l11.8,9.7c7.3,6,13.7,12.6,19.3,19.8
		c5.2,7.4,7.9,16.9,8.1,28.8c0,16.8-7.4,31.7-22.3,44.7c-15.4,13.4-37.6,20.4-66.7,20.8c-24.3-0.2-42.5-5.4-54.5-15.5
		c-12.1-9.5-18.2-20.8-18.2-34c0-6.4,2-13.6,5.9-21.5c3.8-7.9,10.7-14.8,20.8-20.8c11.2-6.4,23.1-10.7,35.4-12.9
		c12.3-1.8,22.4-2.8,30.5-3c-2.5-3.3-4.7-6.8-6.7-10.6c-2.3-3.6-3.4-8-3.4-13.1c0-3.1,0.4-5.6,1.3-7.7c0.8-2.2,1.5-4.1,2.1-6
		c-3.9,0.4-7.7,0.7-11.1,0.7c-18.5-0.2-32.6-6.1-42.3-17.4c-10.2-10.6-15.2-23-15.2-37.1c0-17.1,7.2-32.5,21.6-46.4
		c9.9-8.1,20.1-13.4,30.8-15.9c10.5-2.1,20.4-3.2,29.6-3.2h69.5l-21.4,12.5L231.4,117.3L231.4,117.3L231.4,117.3z M244.8,317.2
		c0-8.8-2.9-16.5-8.6-23c-6.1-6.2-15.6-13.8-28.5-22.9c-2.2-0.2-4.8-0.3-7.8-0.3c-1.8-0.2-6.3,0-13.6,0.7c-7.2,1-14.5,2.7-22.1,4.9
		c-1.8,0.7-4.3,1.7-7.5,3c-3.2,1.5-6.5,3.6-9.8,6.3c-3.2,2.8-5.9,6.3-8.1,10.5c-2.6,4.4-3.8,9.7-3.8,15.9c0,12.2,5.5,22.3,16.6,30.2
		c10.5,7.9,24.9,12,43.1,12.2c16.4-0.2,28.9-3.8,37.5-10.8C240.6,336.9,244.8,328,244.8,317.2z M196.4,215.4
		c9.1-0.3,16.8-3.6,22.8-9.9c2.9-4.4,4.8-8.9,5.7-13.6c0.5-4.6,0.8-8.5,0.8-11.7c0-13.7-3.5-27.5-10.5-41.4
		c-3.3-6.7-7.6-12.1-13-16.3c-5.5-3.9-11.8-6-18.9-6.3c-9.4,0.2-17.2,4-23.5,11.4c-5.3,7.7-7.8,16.3-7.5,25.8
		c0,12.6,3.7,25.6,11,39.2c3.6,6.3,8.1,11.7,13.8,16.1C182.7,213.2,189.2,215.4,196.4,215.4z"/>
	<polygon class="st1" points="368.4,142.7 331.9,142.7 331.9,106.3 314.3,106.3 314.3,142.7 277.8,142.7 277.8,160.4 314.3,160.4 
		314.3,196.8 331.9,196.8 331.9,160.4 368.4,160.4 	"/>
</g>
</svg>
