<?xml version="1.0" encoding="utf-8"?>
<!-- Generator: Adobe Illustrator 21.1.0, SVG Export Plug-In . SVG Version: 6.00 Build 0)  -->
<svg version="1.1" id="Слой_1" xmlns="http://www.w3.org/2000/svg" xmlns:xlink="http://www.w3.org/1999/xlink" x="0px" y="0px"
	 viewBox="0 0 409.65 409.65" style="enable-background:new 0 0 409.65 409.65; fill: #D51900;" xml:space="preserve">
<title>information</title>
<path d="M216.8,0c7.9,1.06,15.87,1.73,23.68,3.24c64.847,12.467,113.207,47.647,145.08,105.54c17.86,32.48,26,67.72,23.7,104.65
	c-4.78,77-41.37,134.7-108.76,172.24c-31.736,17.834-67.976,26.048-104.3,23.64c-76.87-4.73-134.4-41.25-172.13-108.33
	c-14-24.92-21.43-52.09-23.42-80.67c-0.152-1.167-0.379-2.323-0.68-3.46v-24c0.301-1.137,0.528-2.293,0.68-3.46
	c2-28.57,9.55-55.63,23.38-80.66c31.86-57.68,80.25-93,145.06-105.45c7.81-1.5,15.78-2.18,23.67-3.23h24L216.8,0z M204.94,392.58
	c103.53-0.27,187.9-84.76,187.64-187.92c-0.26-103.53-84.76-187.9-187.92-187.64c-103.53,0.27-187.9,84.76-187.64,187.92
	C17.29,308.48,101.78,392.84,204.94,392.58z"/>
<path d="M196.5,153.82h16.62v161.69H196.5V153.82z"/>
<path d="M204.94,85.48c7.51,0.07,17,9.77,16.78,17.21s-9.68,16.68-17,16.62s-17.07-10-16.87-17.21S197.88,85.42,204.94,85.48z"/>
</svg>
