<svg id="Слой_1" data-name="Слой 1" xmlns="http://www.w3.org/2000/svg" viewBox="0 0 307.68 409.53" style="fill: BABABA;"><title>search</title><path d="M300.2,2108.92c7.45,1.3,15,2.13,22.32,4,48.49,12.18,83.67,40.84,101.79,87.52,22,56.65,10.89,108.17-29.05,153.65a99,99,0,0,1-8.63,8.32c-3,2.66-6.13,5.11-9.54,7.93l75.47,130.77-30,17.37c-0.87-1.41-1.65-2.6-2.35-3.82q-35.56-61.57-71-123.19c-1.77-3.08-3.24-3.47-6.48-2.28-53.59,19.51-102.85,11.31-146.83-24.74-27.3-22.38-43.73-51.89-49-86.77-7.44-49.21,6.42-92.07,41.86-127.26,24.3-24.13,53.94-37.51,88.1-40.76a16,16,0,0,0,2.63-.7h20.8Zm-10.12,255.61c61.93-.19,110.93-49.93,110-113.05-0.9-59.88-50.11-107.8-110.55-107.6-61.93.2-110.85,49.89-109.82,112.74C180.67,2316.89,229.61,2364.16,290.08,2364.53Z" transform="translate(-144.86 -2108.92)"/></svg>