<svg id="Слой_1" data-name="Слой 1" xmlns="http://www.w3.org/2000/svg" viewBox="0 0 409.75 366.69" style="fill: #D51900"><title>world-wide-web</title><path d="M93.8,2276.92c1.46-7.74,3.66-15.15,8.52-21.59,6.43-8.54,14.74-14.19,25.16-16.44a7.48,7.48,0,0,0,5.78-4.65,182.79,182.79,0,0,1,147.09-103c32.55-3.19,63.77,1.77,93.5,15.32,38.67,17.63,68,45.3,87.68,83,2.76,5.3,5.52,8.69,11.9,10.49,17.95,5.06,29.63,21.57,29.89,40.93,0.29,21.86.32,43.73,0,65.59-0.32,21.27-13.86,37.39-34.5,42.43a8.24,8.24,0,0,0-4.62,4.1,183.66,183.66,0,0,1-51.8,64.64c-24.43,19.27-51.91,32.06-82.68,36.71-67.13,10.14-123.8-10.1-169.58-60.27-11.19-12.27-20-26.28-27.08-41.3-1-2.15-2.17-3.54-4.8-4.12-18.39-4.09-30.61-17.24-33.83-36a21.21,21.21,0,0,0-.63-2.22Q93.8,2313.72,93.8,2276.92Zm204.73,97.42h88.79c23.6,0,47.2.07,70.79,0,17.07-.07,29-10.54,29.4-27.14,0.59-22.38.25-44.79,0-67.18a27,27,0,0,0-2.69-11.1c-5.57-11.46-15.43-15.82-27.76-15.81q-158.38,0-316.77,0c-0.8,0-1.6,0-2.4,0-16.42.68-27.79,11-28.2,27.15-0.57,22.38-.25,44.79,0,67.18a27,27,0,0,0,2.69,11.1c5.48,11.3,15.19,15.81,27.37,15.8H298.53ZM447.7,2390H149.5c22.06,46.81,77,91.6,149.11,91.6S425.71,2436.76,447.7,2390Zm0.27-152.6c-28.5-57.12-93.63-98.44-167.28-90.7-67.76,7.13-115,53.93-130.92,90.7H448Z" transform="translate(-93.8 -2130.27)"/><path d="M390.05,2323.29c3.86-11.86,7.86-23.68,11.48-35.62,1-3.19,2.41-4.22,5.59-4,4.6,0.39,10.36-1.18,13.53,1.05,3,2.11,3.32,8,4.73,12.33,2.9,8.81,5.73,17.65,8.89,27.42,2.92-9,5.56-17,8.19-25.09,1.4-4.3,2.67-8.65,4.21-12.9,0.38-1.05,1.51-2.57,2.35-2.6,5.81-.23,11.63-0.12,18.07-0.12l-23,67.57c-5.93,0-11.66-.13-17.37.06-2.47.08-2.75-1.5-3.3-3.12q-4.84-14.37-9.69-28.74c-0.42-1.24-.91-2.45-1.75-4.68l-4.07,11.81c-2.51,7.29-5.13,14.56-7.48,21.9-0.7,2.19-1.73,2.9-4,2.82-4.66-.16-9.33.08-14-0.15a4.14,4.14,0,0,1-3.11-2c-7.35-21.24-14.56-42.54-21.78-63.83a9.37,9.37,0,0,1-.17-1.62c5.79,0,11.5-.15,17.18.14,1,0.05,2.41,1.81,2.82,3,4,12.11,7.9,24.27,11.81,36.42Z" transform="translate(-93.8 -2130.27)"/><path d="M240.19,2283.77c-2.58,7.68-4.94,14.72-7.32,21.76-4.82,14.23-9.72,28.44-14.45,42.7-0.8,2.42-1.94,3.34-4.53,3.2a129.06,129.06,0,0,0-13.18,0c-2.5.13-3.46-.87-4.19-3.11-3.55-10.87-7.26-21.68-11.23-33.44-0.81,2-1.36,3.3-1.8,4.59-3.27,9.56-6.59,19.11-9.73,28.72-0.78,2.37-1.83,3.37-4.47,3.26-5.31-.23-10.64-0.07-16.19-0.07l-23-67.57c6.41,0,12.22-.13,18,0.14,0.87,0,2,1.82,2.42,3,3.79,11.35,7.44,22.75,11.13,34.14,0.24,0.74.54,1.45,1.15,3.07,1.4-4.18,2.57-7.56,3.67-11,2.88-8.85,5.81-17.69,8.54-26.59,0.67-2.19,1.71-3,3.95-2.89,4,0.15,8,.21,12,0,2.68-.16,3.67,1,4.41,3.38,3.37,10.79,6.9,21.53,10.38,32.28,0.4,1.24.86,2.45,1.6,4.58,0.74-1.89,1.25-3,1.63-4.16,3.49-10.75,7.08-21.48,10.35-32.29,0.91-3,2.3-3.94,5.33-3.79C229.56,2284,234.48,2283.77,240.19,2283.77Z" transform="translate(-93.8 -2130.27)"/><path d="M298.11,2316.06c-3.57,10.42-7.3,20.78-10.6,31.29-1,3.34-2.65,4.3-5.92,4.09-4.12-.27-8.27.11-12.39-0.17a4.54,4.54,0,0,1-3.37-2.24c-7.29-21-14.42-42-21.56-63.07a14.55,14.55,0,0,1-.3-2.14c6,0,11.76-.13,17.55.14,0.89,0,2.09,1.78,2.48,3,3.61,10.86,7.07,21.76,10.59,32.65,0.39,1.2.88,2.37,1.72,4.6,2-6.11,3.7-11.2,5.35-16.31,2.21-6.84,4.55-13.64,6.51-20.54,0.82-2.88,2.25-3.77,5.08-3.57,4.75,0.33,10.67-1.26,13.95,1,3.08,2.15,3.43,8.27,4.88,12.67,2.74,8.34,5.41,16.71,8.11,25.06,0.08,0.25.22,0.48,0.67,1.46,0.67-1.77,1.2-3,1.61-4.26,3.52-10.89,7.1-21.76,10.47-32.69,0.76-2.46,1.87-3.39,4.47-3.29,5.16,0.19,10.33.06,16,.06-0.51,1.75-.81,3-1.22,4.19-6.75,19.91-13.57,39.79-20.2,59.74-1,2.92-2.32,4.08-5.38,3.73a62.48,62.48,0,0,0-7.19-.06c-8.46,0-8.45,0-11.22-8.2q-4.57-13.56-9.16-27.11h-1Z" transform="translate(-93.8 -2130.27)"/></svg>