<?xml version="1.0" encoding="utf-8"?>
<!-- Generator: Adobe Illustrator 19.2.1, SVG Export Plug-In . SVG Version: 6.00 Build 0)  -->
<svg version="1.1" id="Layer_1" xmlns="http://www.w3.org/2000/svg" xmlns:xlink="http://www.w3.org/1999/xlink" x="0px" y="0px"
	 viewBox="0 0 473.9 473.9" style="enable-background:new 0 0 473.9 473.9;" xml:space="preserve">
<style type="text/css">
	.st0{fill:#DC4B39;}
	.st1{fill:#FFFFFF;}
</style>
<path class="st0" d="M433.4,473.9H41.5c-22.6,0-41-18.5-41-41V41c0-22.6,18.5-41,41-41h391.9c22.6,0,41,18.5,41,41v391.9
	C474.4,455.5,455.9,473.9,433.4,473.9z"/>
<g>
	<path class="st1" d="M284.9,320.6c0-2.2-0.7-4.6-1.5-6.7c-1.1-2.8-3.5-4.1-6.5-4.4c-3.5-0.3-6.3,1.1-8.8,3.3
		c-1,0.9-1.5,2.2-1.5,2.2l0.1,71.4v1.8c0,0,0.6,0.8,0.7,0.9c2.1,2.2,4.5,4,7.6,4.6c5.1,1,8.7-1.1,9.7-5.8c0.3-1.2,0.4-2.4,0.4-3.6
		C285,363.1,285,341.9,284.9,320.6z M284.9,320.6c0-2.2-0.7-4.6-1.5-6.7c-1.1-2.8-3.5-4.1-6.5-4.4c-3.5-0.3-6.3,1.1-8.8,3.3
		c-1,0.9-1.5,2.2-1.5,2.2l0.1,71.4v1.8c0,0,0.6,0.8,0.7,0.9c2.1,2.2,4.5,4,7.6,4.6c5.1,1,8.7-1.1,9.7-5.8c0.3-1.2,0.4-2.4,0.4-3.6
		C285,363.1,285,341.9,284.9,320.6z M364.9,212.9c-84.5-1.8-169-1.8-253.5,0c-29.3,0.6-52.8,24.6-52.8,53.9v132
		c0,29.3,23.4,53.3,52.8,53.9c84.5,1.8,169,1.8,253.5,0c29.3-0.6,52.8-24.6,52.8-53.9v-132C417.6,237.5,394.2,213.6,364.9,212.9z
		 M136.2,410.9h-24.4V273.1H86.6v-23h74.9v23h-25.3V410.9z M223.4,353.7v57.2h-21.6v-13.1c-0.8,0.8-1.2,1.3-1.6,1.7
		c-4.6,5.2-9.9,9.6-16.6,11.9c-3.3,1.1-6.7,1.5-10.1,0.9c-4.7-0.8-7.9-3.5-9.8-7.8c-1.8-4-2.2-8.2-2.2-12.4c-0.1-15.7,0-99.1,0-99.9
		h21.5c0,0.7,0.1,60.5,0.1,89.7c0,1.6,0,3.2,0.3,4.8c0.8,3.9,3.8,5.6,7.6,4.2c4.3-1.6,7.6-4.6,10.4-8.2c0.4-0.5,0.4-1.4,0.4-2.2
		v-88.5l21.6-0.1C223.4,292.1,223.4,333.9,223.4,353.7z M305.5,399.4c-2.9,8.7-9.2,13.1-18.4,13c-7.4-0.1-13.4-3-18.4-8.4
		c-0.6-0.6-2.1-2.2-2.1-2.2v9H245V250h21.6c0,17.1,0,52.9,0,52.9s1.2-2.4,2.3-3.7c3.3-3.7,7.4-6.6,12.4-7.9
		c8.3-2.1,17.9,0.5,22.4,10.2c2.7,5.7,3.4,11.8,3.4,18.1c0,22.5,0,45,0,67.4C307.2,391.2,306.8,395.4,305.5,399.4z M385.3,394.9
		c-3.7,11-11.5,17.1-22.8,18.7c-7,1-14,0.9-20.6-2.1c-9-4.1-14.2-11.4-16.4-20.8c-1-4.4-1.5-8.9-1.6-13.4
		c-0.2-17.6-0.1-35.2-0.1-52.8c0-9.2,2.2-17.7,8.5-24.8c7.2-8.1,16.4-11.1,26.9-10.4c3.2,0.2,6.4,0.7,9.4,1.7
		c10.2,3.4,15.7,11,17.8,21.2c0.8,3.9,1.1,8,1.2,12c0.2,9.4-0.1,30.1-0.1,30.1h-41.4v29.7c0,5.3,4.3,9.6,9.6,9.6
		c5.3,0,9.6-4.3,9.6-9.6v-15.3h22.2C387.8,368.7,388.1,386.7,385.3,394.9z M365.5,319.2c0-5.3-4.3-9.6-9.6-9.6
		c-5.3,0-9.6,4.3-9.6,9.6v16.7h19.3V319.2z M283.4,313.9c-1.1-2.8-3.5-4.1-6.5-4.4c-3.5-0.3-6.3,1.1-8.8,3.3c-1,0.9-1.5,2.2-1.5,2.2
		l0.1,71.4v1.8c0,0,0.6,0.8,0.7,0.9c2.1,2.2,4.5,4,7.6,4.6c5.1,1,8.7-1.1,9.7-5.8c0.3-1.2,0.4-2.4,0.4-3.6c0-21.3,0.1-42.5,0-63.7
		C284.9,318.4,284.3,316,283.4,313.9z"/>
	<path class="st1" d="M338.7,60.3l0,119.4h-22.1l0-12.8c-2.4,2.4-4.5,4.7-6.8,6.7c-4.1,3.6-8.7,6.3-14.1,7.3c-8.3,1.6-15.3-1-18-9.6
		c-0.9-2.9-1.4-5.9-1.4-8.9V60.3h22v91c0,1.2,0.1,2.4,0.3,3.6c0.7,3.8,3.4,5.5,7.1,4.3c4.4-1.5,7.8-4.6,10.6-8.2
		c0.4-0.5,0.3-1.5,0.3-2.2V60.3H338.7z"/>
	<path class="st1" d="M155.7,81.1c-4.8-20.2-14.9-63-14.9-63h-25.2c0,0,19.3,64.1,28,92.7c0.3,1,0.5,2.2,0.5,3.2l0,65.6h23.2l0-65.6
		c0-1.1,0.1-2.2,0.5-3.2c8.6-28.6,28-92.7,28-92.7h-25.2C170.6,18.1,160.5,60.8,155.7,81.1L155.7,81.1z"/>
	<path class="st1" d="M226.1,57.4L226.1,57.4c-17.5,0-31.7,14.2-31.7,31.7v62c0,17.5,14.2,31.7,31.7,31.7l0,0
		c17.5,0,31.7-14.2,31.7-31.7V89C257.7,71.5,243.6,57.4,226.1,57.4z M235.2,152.3c0,5-4.1,9.1-9.1,9.1c-5,0-9.1-4.1-9.1-9.1V87.8
		c0-5,4.1-9.1,9.1-9.1c5,0,9.1,4.1,9.1,9.1V152.3z"/>
</g>
</svg>
